<svg id="Layer_1" data-name="Layer 1" xmlns="http://www.w3.org/2000/svg" viewBox="0 0 600 600"><defs><style>.cls-1{fill:#fff;}</style></defs><title>logo</title><path class="cls-1" d="M561.56,93.76V392c0,73.3-44.8,114.26-119.68,114.26C369.35,506.24,323,463.94,322,396c0-.74,0-136.47,0-137.21h79.86c0,.74,0,136.47.06,137.21,1,24.72,16,40.1,39.07,40.1,24.45,0,37.79-15.62,37.79-44.57V173.65H278V392c0,73.3-44.79,114.26-119.68,114.26-72.53,0-118.92-42.3-119.9-110.24,0-.74,0-136.47,0-137.21H118.3c0,.74,0,136.47.06,137.21,1,24.72,16,40.1,39.09,40.1,24.43,0,37.78-15.62,37.78-44.57V173.65H38.44V93.76Z"/></svg>