<svg width="120" height="120" viewBox="0 0 120 120" fill="none" xmlns="http://www.w3.org/2000/svg">
<path fill-rule="evenodd" clip-rule="evenodd" d="M39.0461 34.73V78.3099C39.0461 84.0999 36.3761 87.2239 31.4901 87.2239C26.8721 87.2239 23.8721 84.1479 23.6721 79.2039C23.6601 79.056 23.6601 51.9142 23.6601 51.762L7.68408 51.7619V79.2039C7.88008 92.7919 17.1581 101.252 31.6641 101.252C46.6421 101.252 55.6001 93.06 55.6001 78.3999V34.73H95.7561V78.3059C95.7561 84.0959 93.0881 87.2199 88.1981 87.2199C83.5841 87.2199 80.5841 84.1439 80.3841 79.1999C80.3721 79.0519 80.3721 51.9059 80.3721 51.7579H64.4001V79.1999C64.6001 92.7879 73.8701 101.248 88.3761 101.252C103.352 101.252 112.312 93.06 112.312 78.3999V18.752H7.68808V34.73H39.0461ZM9.68808 32.73H41.0461V78.3099C41.0461 81.4779 40.3191 84.2382 38.6246 86.233C36.8848 88.2812 34.3811 89.2239 31.4901 89.2239C28.7189 89.2239 26.2716 88.2891 24.4923 86.4641C22.728 84.6544 21.7913 82.1464 21.6741 79.2943C21.6734 79.2794 21.6731 79.2677 21.6731 79.2677L21.6722 79.2373L21.6717 79.2012L21.671 79.1253C21.6707 79.0664 21.6703 78.9834 21.67 78.8794C21.6693 78.6707 21.6687 78.37 21.6681 77.9914C21.667 77.2338 21.666 76.16 21.6651 74.8758C21.6635 72.3073 21.6623 68.8952 21.6616 65.4834C21.6606 60.8899 21.6602 56.2965 21.6601 53.7619H9.68408V79.1893C9.7784 85.5086 11.9678 90.4629 15.6598 93.8496C19.3705 97.2534 24.7953 99.2519 31.6641 99.2519C38.8013 99.2519 44.2368 97.3036 47.8761 93.8689C51.4985 90.4503 53.6001 85.3151 53.6001 78.3999V32.73H97.7561V78.3059C97.7561 81.4735 97.0298 84.234 95.3351 86.229C93.595 88.2775 91.0906 89.2199 88.1981 89.2199C85.4285 89.2199 82.9821 88.2848 81.2036 86.4598C79.4399 84.6502 78.5033 82.1422 78.3861 79.2899C78.3854 79.274 78.3851 79.2634 78.3851 79.2634L78.3842 79.2333L78.3837 79.1972L78.383 79.1213C78.3827 79.0624 78.3823 78.9794 78.382 78.8754C78.3813 78.6667 78.3807 78.3661 78.3801 77.9874C78.379 77.2298 78.378 76.156 78.3772 74.8718C78.3755 72.3033 78.3743 68.8912 78.3736 65.4794C78.3726 60.8859 78.3723 56.2925 78.3721 53.7579H66.4001V79.185C66.4963 85.5048 68.685 90.4593 72.3757 93.8464C76.0848 97.2506 81.5075 99.2499 88.3761 99.2519M9.68808 32.73V20.752H110.312V78.3999C110.312 85.315 108.21 90.4502 104.587 93.8689C100.948 97.3035 95.5119 99.2518 88.3761 99.2519" fill="white"/>
</svg>
