<svg width="120" height="120" viewBox="0 0 120 120" fill="none" xmlns="http://www.w3.org/2000/svg">
<path d="M112.312 18.752V78.3999C112.312 93.0599 103.352 101.252 88.3761 101.252C73.8701 101.248 64.6001 92.7879 64.4001 79.1999C64.4001 79.0519 64.4001 51.906 64.4001 51.758H80.3721C80.3721 51.906 80.3721 79.0519 80.3841 79.1999C80.5841 84.1439 83.5841 87.2199 88.1981 87.2199C93.0881 87.2199 95.7561 84.0959 95.7561 78.3059V34.73H55.6001V78.3999C55.6001 93.0599 46.6421 101.252 31.6641 101.252C17.1581 101.252 7.88008 92.7919 7.68408 79.2039C7.68408 79.0559 7.68408 51.9099 7.68408 51.7619H23.6601C23.6601 51.9099 23.6601 79.0559 23.6721 79.2039C23.8721 84.1479 26.8721 87.2239 31.4901 87.2239C36.3761 87.2239 39.0461 84.0999 39.0461 78.3099V34.73H7.68808V18.752H112.312Z" fill="#101540"/>
</svg>
